<?xml version="1.0" encoding="UTF-8" standalone="no"?>
<svg
   xmlns:dc="http://purl.org/dc/elements/1.1/"
   xmlns:cc="http://creativecommons.org/ns#"
   xmlns:rdf="http://www.w3.org/1999/02/22-rdf-syntax-ns#"
   xmlns:svg="http://www.w3.org/2000/svg"
   xmlns="http://www.w3.org/2000/svg"
   xmlns:sodipodi="http://sodipodi.sourceforge.net/DTD/sodipodi-0.dtd"
   xmlns:inkscape="http://www.inkscape.org/namespaces/inkscape"
   xml:space="preserve"
   style="shape-rendering:geometricPrecision;text-rendering:geometricPrecision;image-rendering:optimizeQuality;"
   viewBox="0 0 6827 6827"
   x="0px"
   y="0px"
   fill-rule="evenodd"
   clip-rule="evenodd"
   id="svg2"
   version="1.1"
   inkscape:version="0.91 r13725"
   sodipodi:docname="x.svg"><metadata
     id="metadata16"><rdf:RDF><cc:Work
         rdf:about=""><dc:format>image/svg+xml</dc:format><dc:type
           rdf:resource="http://purl.org/dc/dcmitype/StillImage" /><dc:title></dc:title></cc:Work></rdf:RDF></metadata><sodipodi:namedview
     pagecolor="#ffffff"
     bordercolor="#666666"
     borderopacity="1"
     objecttolerance="10"
     gridtolerance="10"
     guidetolerance="10"
     inkscape:pageopacity="0"
     inkscape:pageshadow="2"
     inkscape:window-width="640"
     inkscape:window-height="480"
     id="namedview14"
     showgrid="false"
     inkscape:zoom="0.099750989"
     inkscape:cx="3413.5"
     inkscape:cy="3413.5"
     inkscape:current-layer="svg2" /><defs
     id="defs4"><style
       type="text/css"
       id="style6">
   
    .fil1 {fill:none}
    .fil0 {fill:black}
   
  </style></defs><g
     transform="matrix(1,0,0,-1,-1391.7489,2796.9647)"
     id="g4148" /><g
     id="g4157"
     transform="translate(119.4389,185.46343)"><g
       transform="matrix(-1,0,0,1,7258.0735,-180.44936)"
       id="g4144"><path
         inkscape:connector-curvature="0"
         id="path4146"
         transform="matrix(-1,0,0,1,6536.2761,4020.0103)"
         d="m 1146.252,-2609.2852 c -59.7316,0 -119.4621,9.6863 -176.65239,29.0469 -89.83348,24.2406 -174.74571,71.65 -245.32422,142.2285 -215,215 -215,563 0,778 l 2882.00001,2882 3,3 c 153.1265,153.1265 373.717,197.1891 565.6738,132.1973 89.8257,-24.2423 174.7298,-71.6497 245.3028,-142.2227 215,-214.99996 215,-562.99996 0,-777.99996 l -2882,-2882.00004 -3,-3 c -107.5,-107.5 -248.25,-161.25 -389,-161.25 z"
         style="fill:#000000" /></g><g
       id="g4153"
       transform="matrix(-1,0,0,-1,7258.0735,6636.5225)"><path
         inkscape:connector-curvature="0"
         style="fill:#000000"
         d="m 1146.252,-2609.2852 c -59.7316,0 -119.4621,9.6863 -176.65239,29.0469 -89.83348,24.2406 -174.74571,71.65 -245.32422,142.2285 -215,215 -215,563 0,778 l 2882.00001,2882 3,3 c 153.1265,153.1265 373.717,197.1891 565.6738,132.1973 89.8257,-24.2423 174.7298,-71.6497 245.3028,-142.2227 215,-214.99996 215,-562.99996 0,-777.99996 l -2882,-2882.00004 -3,-3 c -107.5,-107.5 -248.25,-161.25 -389,-161.25 z"
         transform="matrix(-1,0,0,1,6536.2761,4020.0103)"
         id="path4155" /></g></g></svg>