<?xml version="1.0" encoding="UTF-8" standalone="no"?>
<!-- Created with Inkscape (http://www.inkscape.org/) -->

<svg
   width="34mm"
   height="16mm"
   viewBox="0 0 34 16"
   version="1.1"
   id="svg1"
   inkscape:version="1.3.2 (1:1.3.2+202311252150+091e20ef0f)"
   xml:space="preserve"
   sodipodi:docname="refget_logo.svg"
   xmlns:inkscape="http://www.inkscape.org/namespaces/inkscape"
   xmlns:sodipodi="http://sodipodi.sourceforge.net/DTD/sodipodi-0.dtd"
   xmlns="http://www.w3.org/2000/svg"
   xmlns:svg="http://www.w3.org/2000/svg"><sodipodi:namedview
     id="namedview1"
     pagecolor="#cccccc"
     bordercolor="#eeeeee"
     borderopacity="1"
     inkscape:showpageshadow="0"
     inkscape:pageopacity="0"
     inkscape:pagecheckerboard="0"
     inkscape:deskcolor="#676767"
     inkscape:document-units="mm"
     inkscape:zoom="2"
     inkscape:cx="15.5"
     inkscape:cy="107"
     inkscape:window-width="2492"
     inkscape:window-height="1376"
     inkscape:window-x="1441"
     inkscape:window-y="27"
     inkscape:window-maximized="1"
     inkscape:current-layer="layer1" /><defs
     id="defs1" /><g
     inkscape:label="Layer 1"
     inkscape:groupmode="layer"
     id="layer1"><g
       id="g13"
       transform="matrix(4.7888039,0,0,4.7888039,-315.11153,-174.97354)"
       style="stroke-width:0.20882"><g
         id="g11"
         style="fill:#666666;stroke-width:1.33314"
         transform="matrix(0,-0.04144365,-0.04144365,0,71.754396,41.06397)"><path
           d="M 62.747,109.54 H 52.416 c -1.104,0 -2,-0.896 -2,-2 0,-1.104 0.896,-2 2,-2 h 10.331 c 1.104,0 2,0.896 2,2 0,1.104 -0.895,2 -2,2 z"
           id="path3"
           style="fill:#666666;stroke-width:1.33314" /><path
           d="M 58.183,121.771 H 46.889 c -1.104,0 -2,-0.896 -2,-2 0,-1.104 0.896,-2 2,-2 h 11.294 c 1.104,0 2,0.896 2,2 0,1.104 -0.896,2 -2,2 z"
           id="path4"
           style="fill:#666666;stroke-width:1.33314" /><path
           d="m 75.619,22.46 h -9.197 c -1.104,0 -2,-0.896 -2,-2 0,-1.104 0.896,-2 2,-2 h 9.197 c 1.104,0 2,0.896 2,2 0,1.104 -0.895,2 -2,2 z"
           id="path5"
           style="fill:#1a1a1a;stroke-width:1.33314" /><path
           d="m 79.818,12.161 h -8.965 c -1.104,0 -2,-0.896 -2,-2 0,-1.104 0.896,-2 2,-2 h 8.965 c 1.104,0 2,0.896 2,2 0,1.104 -0.895,2 -2,2 z"
           id="path6"
           style="fill:#1a1a1a;stroke-width:1.33314" /><path
           d="m 56.038,70.386 h -8.464 c -1.104,0 -2,-0.896 -2,-2 0,-1.104 0.896,-2 2,-2 h 8.464 c 1.104,0 2,0.896 2,2 0,1.104 -0.895,2 -2,2 z"
           id="path7"
           style="fill:#1a1a1a;stroke-width:1.33314" /><path
           d="m 60.035,50.893 h -8.464 c -1.104,0 -2,-0.896 -2,-2 0,-1.104 0.896,-2 2,-2 h 8.464 c 1.104,0 2,0.896 2,2 0,1.104 -0.895,2 -2,2 z"
           id="path8"
           style="fill:#1a1a1a;stroke-width:1.33314" /><path
           d="m 56.038,60.393 h -8.464 c -1.104,0 -2,-0.896 -2,-2 0,-1.104 0.896,-2 2,-2 h 8.464 c 1.104,0 2,0.896 2,2 0,1.104 -0.895,2 -2,2 z"
           id="path9"
           style="fill:#1a1a1a;stroke-width:1.33314" /><path
           d="m 76.24,80.404 h -8.464 c -1.104,0 -2,-0.896 -2,-2 0,-1.104 0.896,-2 2,-2 h 8.464 c 1.104,0 2,0.896 2,2 0,1.104 -0.895,2 -2,2 z"
           id="path10"
           style="fill:#666666;stroke-width:1.33314" /><path
           d="m 80.237,70.386 h -8.463 c -1.104,0 -2,-0.896 -2,-2 0,-1.104 0.896,-2 2,-2 h 8.463 c 1.104,0 2,0.896 2,2 0,1.104 -0.895,2 -2,2 z"
           id="path11"
           style="fill:#666666;stroke-width:1.33314" /></g><path
         d="m 69.159396,39.238912 c 0.656177,-0.02872 1.079151,-0.475566 1.270455,-0.734754 0.0023,-0.0025 0.0044,-0.0052 0.0063,-0.008 l 0.0086,-0.01239 c 0.01417,-0.01968 0.02681,-0.03804 0.03813,-0.05487 0.170955,-0.2354 0.556962,-0.654478 1.150849,-0.680505 0.04575,-0.002 0.08094,-0.04173 0.07916,-0.08645 -0.002,-0.04575 -0.0407,-0.08119 -0.08645,-0.07916 -0.656343,0.02876 -1.080436,0.480166 -1.271408,0.740142 -0.0019,0.0022 -0.0036,0.0044 -0.0053,0.0068 l -0.0057,0.0082 c -0.01393,0.01931 -0.02648,0.03738 -0.03763,0.05404 -0.171784,0.236643 -0.557459,0.655224 -1.154289,0.681334 z"
         id="path2"
         style="fill:#1a1a1a;stroke-width:0.0552503"
         sodipodi:nodetypes="cccccccccccccc" /><path
         d="m 66.491052,39.157438 c 0,0.0012 4.2e-5,0.0025 8.3e-5,0.0037 0.002,0.04575 0.0407,0.08119 0.08645,0.07916 0.67147,-0.02947 1.095853,-0.495417 1.278868,-0.75042 0.05682,-0.07166 0.590489,-0.716188 1.295694,-0.684898 0.644905,0.02942 1.040692,0.477514 1.161417,0.636533 0.0043,0.0061 0.0094,0.01301 0.01504,0.02068 l 0.02168,0.03054 c 0.0039,0.0054 0.0082,0.01024 0.01305,0.01446 0.103023,0.103023 0.209257,0.0027 0.108334,-0.13034 -0.0043,-0.006 -0.0092,-0.01281 -0.0148,-0.02035 l -0.02263,-0.03187 c -0.004,-0.0056 -0.0085,-0.01053 -0.01347,-0.01479 -0.159558,-0.19864 -0.587588,-0.639766 -1.261213,-0.670476 -0.660363,-0.0293 -1.165935,0.446307 -1.362212,0.666207 -0.01343,0.0057 -0.02549,0.01508 -0.0346,0.02818 l -0.04733,0.06788 1.25e-4,8.3e-5 c -0.172075,0.236519 -0.553563,0.647019 -1.145296,0.673004 -0.04443,0.0019 -0.0792,0.03862 -0.0792,0.08268 z"
         id="path1"
         style="fill:#666666;stroke-width:0.0552503"
         sodipodi:nodetypes="sccccccccccccccccccs" /><path
         d="m 67.715464,38.425833 0.04832,0.06635 c 0.0039,0.0054 0.0084,0.01024 0.0133,0.01442 0.172116,0.232167 0.593807,0.732309 1.382312,0.732309 0.103109,0 0.116251,-0.18724 -0.0073,-0.16565 -0.728165,0.03166 -1.114171,-0.492019 -1.259472,-0.689167 -0.02263,-0.03071 -0.03892,-0.05288 -0.05297,-0.06842 -6.22e-4,-7.05e-4 -0.0012,-0.0013 -0.0019,-0.002 -0.112724,-0.195243 -0.219792,-0.0033 -0.17836,0.04239 z"
         id="path12"
         style="fill:#1a1a1a;stroke-width:0.0552503"
         sodipodi:nodetypes="cccscscccc" /><text
         xml:space="preserve"
         style="font-style:normal;font-variant:normal;font-weight:normal;font-stretch:normal;font-size:2.11667px;line-height:1;font-family:'Ubuntu Condensed';-inkscape-font-specification:'Ubuntu Condensed, ';font-variant-ligatures:normal;font-variant-position:normal;font-variant-caps:normal;font-variant-numeric:normal;font-variant-alternates:normal;font-variant-east-asian:normal;font-feature-settings:normal;font-variation-settings:normal;text-indent:0;text-align:center;text-decoration:none;text-decoration-line:none;text-decoration-style:solid;text-decoration-color:#000000;letter-spacing:0px;word-spacing:0px;text-transform:none;writing-mode:lr-tb;direction:ltr;text-orientation:mixed;dominant-baseline:auto;baseline-shift:baseline;text-anchor:middle;white-space:normal;vector-effect:none;fill:#1a1a1a;fill-opacity:1;stroke:none;stroke-width:0.0417641;stroke-linecap:butt;stroke-linejoin:miter;stroke-miterlimit:4;stroke-dasharray:none;stroke-dashoffset:0;stroke-opacity:1;-inkscape-stroke:none;stop-color:#000000"
         x="67.012398"
         y="38.340378"
         id="text1"><tspan
           sodipodi:role="line"
           id="tspan1"
           style="font-style:normal;font-variant:normal;font-weight:normal;font-stretch:normal;font-size:2.11667px;line-height:1;font-family:'Ubuntu Condensed';-inkscape-font-specification:'Ubuntu Condensed, ';font-variant-ligatures:normal;font-variant-position:normal;font-variant-caps:normal;font-variant-numeric:normal;font-variant-alternates:normal;font-variant-east-asian:normal;font-feature-settings:normal;font-variation-settings:normal;text-indent:0;text-align:center;text-decoration:none;text-decoration-line:none;text-decoration-style:solid;text-decoration-color:#000000;letter-spacing:0px;word-spacing:0px;text-transform:none;writing-mode:lr-tb;direction:ltr;text-orientation:mixed;dominant-baseline:auto;baseline-shift:baseline;white-space:normal;vector-effect:none;fill:#1a1a1a;fill-opacity:1;stroke:none;stroke-width:0.0417641;stroke-linecap:butt;stroke-linejoin:miter;stroke-miterlimit:4;stroke-dasharray:none;stroke-dashoffset:0;stroke-opacity:1;-inkscape-stroke:none;stop-color:#000000;stop-opacity:1"
           x="67.012398"
           y="38.340378">ref</tspan></text><text
         xml:space="preserve"
         style="font-style:normal;font-variant:normal;font-weight:normal;font-stretch:normal;font-size:2.11667px;line-height:1;font-family:'Ubuntu Condensed';-inkscape-font-specification:'Ubuntu Condensed, ';font-variant-ligatures:normal;font-variant-position:normal;font-variant-caps:normal;font-variant-numeric:normal;font-variant-alternates:normal;font-variant-east-asian:normal;font-feature-settings:normal;font-variation-settings:normal;text-indent:0;text-align:center;text-decoration:none;text-decoration-line:none;text-decoration-style:solid;text-decoration-color:#000000;letter-spacing:0px;word-spacing:0px;text-transform:none;writing-mode:lr-tb;direction:ltr;text-orientation:mixed;dominant-baseline:auto;baseline-shift:baseline;text-anchor:middle;white-space:normal;vector-effect:none;fill:#666666;fill-opacity:1;stroke:none;stroke-width:0.0417641;stroke-linecap:butt;stroke-linejoin:miter;stroke-miterlimit:4;stroke-dasharray:none;stroke-dashoffset:0;stroke-opacity:1;-inkscape-stroke:none;stop-color:#000000"
         x="71.459557"
         y="39.399628"
         id="text2"><tspan
           sodipodi:role="line"
           id="tspan2"
           style="font-style:normal;font-variant:normal;font-weight:normal;font-stretch:normal;font-size:2.11667px;line-height:1;font-family:'Ubuntu Condensed';-inkscape-font-specification:'Ubuntu Condensed, ';font-variant-ligatures:normal;font-variant-position:normal;font-variant-caps:normal;font-variant-numeric:normal;font-variant-alternates:normal;font-variant-east-asian:normal;font-feature-settings:normal;font-variation-settings:normal;text-indent:0;text-align:center;text-decoration:none;text-decoration-line:none;text-decoration-style:solid;text-decoration-color:#000000;letter-spacing:0px;word-spacing:0px;text-transform:none;writing-mode:lr-tb;direction:ltr;text-orientation:mixed;dominant-baseline:auto;baseline-shift:baseline;white-space:normal;vector-effect:none;fill:#666666;fill-opacity:1;stroke:none;stroke-width:0.0417641;stroke-linecap:butt;stroke-linejoin:miter;stroke-miterlimit:4;stroke-dasharray:none;stroke-dashoffset:0;stroke-opacity:1;-inkscape-stroke:none;stop-color:#000000;stop-opacity:1"
           x="71.459557"
           y="39.399628">get</tspan></text></g></g></svg>
