<?xml version="1.0" encoding="UTF-8" standalone="no"?>
<!-- Created with Inkscape (http://www.inkscape.org/) -->

<svg
   width="34mm"
   height="16mm"
   viewBox="0 0 34 16"
   version="1.1"
   id="svg1"
   inkscape:version="1.3.2 (1:1.3.2+202311252150+091e20ef0f)"
   xml:space="preserve"
   sodipodi:docname="refget_logo.svg"
   xmlns:inkscape="http://www.inkscape.org/namespaces/inkscape"
   xmlns:sodipodi="http://sodipodi.sourceforge.net/DTD/sodipodi-0.dtd"
   xmlns="http://www.w3.org/2000/svg"
   xmlns:svg="http://www.w3.org/2000/svg"><sodipodi:namedview
     id="namedview1"
     pagecolor="#cccccc"
     bordercolor="#eeeeee"
     borderopacity="1"
     inkscape:showpageshadow="0"
     inkscape:pageopacity="0"
     inkscape:pagecheckerboard="0"
     inkscape:deskcolor="#676767"
     inkscape:document-units="mm"
     inkscape:zoom="2"
     inkscape:cx="-180.25"
     inkscape:cy="135.5"
     inkscape:window-width="2492"
     inkscape:window-height="1376"
     inkscape:window-x="1441"
     inkscape:window-y="27"
     inkscape:window-maximized="1"
     inkscape:current-layer="layer1" /><defs
     id="defs1" /><g
     inkscape:label="Layer 1"
     inkscape:groupmode="layer"
     id="layer1"><g
       id="g14"><path
         d="m 6.958691,8.9373206 v 2.0503474 c 0,0.219106 0.1778251,0.396931 0.3969311,0.396931 0.2191059,0 0.396931,-0.177825 0.396931,-0.396931 V 8.9373206 c 0,-0.2191059 -0.1778251,-0.396931 -0.396931,-0.396931 -0.219106,0 -0.3969311,0.1776267 -0.3969311,0.396931 z"
         id="path3"
         style="fill:#666666;stroke-width:0.264582" /><path
         d="m 4.5312594,9.8431172 v 2.2414698 c 0,0.219106 0.1778251,0.396931 0.396931,0.396931 0.2191059,0 0.396931,-0.177825 0.396931,-0.396931 V 9.8431172 c 0,-0.2191059 -0.1778251,-0.396931 -0.396931,-0.396931 -0.2191059,0 -0.396931,0.1778251 -0.396931,0.396931 z"
         id="path4"
         style="fill:#666666;stroke-width:0.264582" /><path
         id="path5"
         style="fill:#1a1a1a;stroke-width:0.1;stroke:#ffffff;stroke-dasharray:none;paint-order:stroke fill markers"
         d="M 10.601937 0.48214111 C 10.313335 0.48199454 10.016935 0.53124474 9.7642619 0.67747803 C 9.508331 0.82351186 9.3212639 1.0692757 9.2113241 1.3394531 C 9.0840154 1.6523454 9.048569 1.9942429 9.0511271 2.3295736 L 9.0511271 8.224821 C 9.0433871 8.2650958 9.0470571 8.30599 9.0511271 8.3462606 C 9.0618041 8.3697146 9.068556 8.4053063 9.090918 8.4258423 C 9.1818488 8.5395743 9.2740999 8.652605 9.3642863 8.7669067 C 9.4441081 8.8758109 9.5223686 8.985235 9.6030314 9.0935018 C 9.6468634 9.1382076 9.6867526 9.1858945 9.722404 9.237679 C 10.302125 10.009594 10.986752 10.708008 11.779643 11.261845 C 12.610502 11.845828 13.558687 12.262858 14.5526 12.47314 C 15.117085 12.593246 15.694852 12.651067 16.271875 12.64884 L 16.271875 12.650391 C 16.278324 12.650108 16.284555 12.649656 16.290995 12.649357 C 16.294095 12.649338 16.297197 12.64938 16.300297 12.649357 C 16.302412 12.649242 16.30439 12.648481 16.306498 12.648324 C 19.428839 12.496506 21.443032 10.368326 22.355741 9.1317424 C 22.366751 9.1197704 22.376614 9.1069098 22.385714 9.0935018 L 22.427055 9.0345907 C 22.494915 8.9403469 22.555264 8.852153 22.609473 8.7715576 C 22.962434 8.2855406 23.507809 7.6361953 24.240898 7.0445312 L 24.240898 8.2077677 C 24.240898 8.4268734 24.418667 8.6046427 24.637773 8.6046427 C 24.856878 8.6046427 25.035164 8.4268734 25.035164 8.2077677 L 25.035164 6.4828084 C 25.414955 6.2488167 25.832128 6.0420534 26.285217 5.8787109 L 26.285217 7.3287516 C 26.285217 7.5478573 26.462987 7.7256266 26.682092 7.7256266 C 26.901198 7.7256266 27.078967 7.5478573 27.078967 7.3287516 L 27.078967 5.648234 C 27.410136 5.5764688 27.756944 5.5287861 28.120764 5.5128418 C 28.339851 5.5032618 28.508593 5.3130685 28.500069 5.0989136 C 28.490469 4.8798262 28.304712 4.7098873 28.085624 4.7196086 C 24.942532 4.8573342 22.911632 7.0191234 21.997107 8.2640951 C 21.988007 8.2746299 21.979925 8.2851582 21.971785 8.2966512 L 21.944397 8.3359253 C 21.877687 8.4283971 21.817958 8.5150429 21.764563 8.5948242 C 21.300073 9.2346879 20.507561 10.151119 19.392098 10.851017 L 19.392098 9.4753906 C 19.392098 9.2562849 19.214329 9.0785156 18.995223 9.0785156 C 18.776117 9.0785156 18.598348 9.2560864 18.598348 9.4753906 L 18.598348 11.155391 C 18.598348 11.196298 18.60441 11.235557 18.615918 11.272697 C 18.270871 11.432373 17.900202 11.565035 17.506425 11.665438 L 17.506425 10.268624 C 17.506425 10.049518 17.328656 9.8717489 17.10955 9.8717489 C 16.890445 9.8717489 16.712675 10.049319 16.712675 10.268624 L 16.712675 11.813232 C 16.58712 11.828347 16.46161 11.843837 16.33182 11.851473 C 16.272872 11.851359 16.214254 11.862921 16.155086 11.860258 C 15.944424 11.867464 15.733565 11.863721 15.523083 11.850439 L 15.523083 10.268624 C 15.523083 10.049518 15.345314 9.8717489 15.126208 9.8717489 C 14.907103 9.8717489 14.729333 10.049319 14.729333 10.268624 L 14.729333 11.749154 C 14.33707 11.674084 13.951628 11.563084 13.5816 11.411707 C 12.721226 11.063432 11.950609 10.515752 11.297502 9.8598633 C 10.893379 9.4571195 10.535958 9.0110143 10.200411 8.5503825 C 10.116596 8.4385905 10.036934 8.3229767 9.9425456 8.2196533 C 9.9272446 8.2014873 9.9196705 8.1815212 9.9229085 8.1581584 L 9.9229085 3.7759969 L 11.2913 3.7759969 L 11.2913 3.0261719 L 9.9229085 3.0261719 C 9.9232627 2.7588008 9.9220802 2.4915183 9.9234253 2.2241536 C 9.9277453 2.0592535 9.9409997 1.8929904 9.9818197 1.7327108 C 10.018974 1.5935066 10.086105 1.4560402 10.201961 1.3658081 C 10.311459 1.2762573 10.452137 1.2340553 10.591602 1.2247314 C 10.737564 1.2139526 10.885306 1.2291774 11.026717 1.2665894 C 11.122027 1.2872642 11.214444 1.3200882 11.301636 1.363741 C 11.362446 1.1339537 11.423248 0.90416483 11.484054 0.67437744 C 11.345575 0.60677398 11.197497 0.56068228 11.047904 0.52503255 C 10.901636 0.49323141 10.751386 0.48226947 10.601937 0.48214111 z M 6.1117716 2.894397 C 5.8358377 2.8930398 5.5569287 2.9591375 5.3200887 3.1031698 C 5.0793949 3.2481994 4.8845921 3.4617479 4.7407959 3.7015828 C 4.5598804 4.0103828 4.4659656 4.3619614 4.4090332 4.7128906 C 4.3445944 5.1236146 4.3295781 5.540583 4.3413371 5.9557088 C 4.3540031 6.3092372 4.3918634 6.6636045 4.4777629 7.0073242 C 4.5456037 7.2690022 4.6473296 7.5246256 4.8007406 7.7483643 C 4.9837843 8.0095312 5.2391634 8.223366 5.5360962 8.3426432 C 5.8457489 8.4657247 6.184702 8.4928999 6.5148478 8.4744181 C 6.708472 8.4629971 6.9019918 8.4290938 7.0843221 8.3617635 C 7.2295307 8.3124025 7.3770575 8.262364 7.5065186 8.1783122 C 7.5147105 8.1694833 7.5027189 8.1527334 7.5023844 8.1405884 L 7.3483887 7.4760295 C 7.2242848 7.5406722 7.0926255 7.5889333 6.9608154 7.6351929 C 6.7387789 7.704008 6.5023606 7.7222121 6.2714518 7.7003052 C 6.0883572 7.6817581 5.9042282 7.6256066 5.7583049 7.5101359 C 5.6411431 7.4200026 5.5413546 7.3055901 5.4730509 7.1742391 C 5.3540508 6.9413238 5.2964308 6.6830068 5.2647949 6.4249308 C 5.2447091 6.2659025 5.2338845 6.1055859 5.2296549 5.9453735 L 7.7540487 5.9453735 C 7.7684607 5.7808101 7.7627472 5.6157883 7.7638672 5.4508301 C 7.7612157 4.9985504 7.7247258 4.5421553 7.60212 4.1051758 C 7.5378294 3.8816271 7.4517385 3.6615841 7.323584 3.4664551 C 7.1936814 3.2700281 7.0068237 3.1120073 6.7897664 3.0199707 C 6.5767769 2.92795 6.3424854 2.8943833 6.1117716 2.894397 z M 2.9186849 2.9248861 C 2.6235469 2.9243877 2.327451 2.9576972 2.0422526 3.0349569 C 1.8247237 3.0898792 1.6109916 3.1616718 1.4086995 3.2592326 L 1.4086995 8.3478109 L 2.280481 8.3478109 L 2.280481 3.806486 C 2.6037495 3.6745104 2.9639004 3.6467202 3.3072917 3.7000326 C 3.4453998 3.7223014 3.5811196 3.7606571 3.7093343 3.8168213 L 3.861263 3.0664795 C 3.6527575 2.9856284 3.4296423 2.9514333 3.2075562 2.9357381 C 3.1113852 2.928582 3.0151221 2.9248853 2.9186849 2.9248861 z M 6.1117716 3.6344035 C 6.2573903 3.6328235 6.4084069 3.6754357 6.5169149 3.7759969 C 6.6284432 3.8761215 6.6883882 4.0188499 6.729305 4.1599528 C 6.8176858 4.4630246 6.8425765 4.7799159 6.8502279 5.0942627 C 6.851213 5.1414315 6.8517782 5.1886767 6.8517782 5.2358561 L 5.2399902 5.2358561 C 5.2602366 4.8901743 5.3034456 4.5419138 5.4167236 4.2131795 C 5.4709612 4.0530491 5.5499943 3.895005 5.6807902 3.7837484 C 5.7988987 3.6807452 5.9565194 3.632812 6.1117716 3.6344035 z " /><path
         d="m 12.741182,6.2594255 v 1.6798121 c 0,0.2191059 0.177825,0.396931 0.396931,0.396931 0.219106,0 0.396931,-0.1778251 0.396931,-0.396931 V 6.2594255 c 0,-0.2191059 -0.177825,-0.396931 -0.396931,-0.396931 -0.219106,0 -0.396931,0.1776266 -0.396931,0.396931 z"
         id="path10"
         style="fill:#666666;stroke-width:0.264582" /><path
         d="m 14.72941,5.4661589 v 1.6796136 c 0,0.2191059 0.177825,0.396931 0.396931,0.396931 0.219106,0 0.396931,-0.1778251 0.396931,-0.396931 V 5.4661589 c 0,-0.2191059 -0.177825,-0.396931 -0.396931,-0.396931 -0.219106,0 -0.396931,0.1776266 -0.396931,0.396931 z"
         id="path11"
         style="fill:#666666;stroke-width:0.264582" /><path
         d="m 3.4934811,12.260428 c 0,0.0057 2.012e-4,0.01197 3.975e-4,0.01772 0.00958,0.219088 0.1949043,0.388803 0.4139921,0.379082 3.2155382,-0.141128 5.2478251,-2.372457 6.1242483,-3.5936163 0.2721,-0.3431657 2.827736,-3.4296839 6.204824,-3.2798422 3.088324,0.1408866 3.925335,1.2283856 4.503463,1.9898964 0.02059,0.029212 0.04502,0.062302 0.07202,0.099032 L 20.916247,8.01895 c 0.01868,0.02586 0.03927,0.049037 0.06249,0.069246 0.493357,0.4933569 1.002091,0.01293 0.51879,-0.6241727 -0.02059,-0.028733 -0.04406,-0.061345 -0.07087,-0.097452 L 21.31829,7.2139525 C 21.29914,7.1871355 21.27759,7.1635265 21.25378,7.1431265 20.489693,6.1918781 19.498277,5.1377475 16.272419,4.9906833 13.11007,4.8503713 10.688985,7.12796 9.7490526,8.181018 9.6847389,8.2083141 9.626986,8.2532331 9.58336,8.3159665 l -0.2266541,0.325064 5.986e-4,3.974e-4 C 8.533271,9.774071 6.7063998,11.739875 3.8727065,11.864312 3.65994,11.873411 3.4934332,12.049256 3.4934332,12.260251 Z"
         id="path1"
         style="fill:#666666;stroke-width:0.264583"
         sodipodi:nodetypes="sccccccccccccccccccss" /><path
         sodipodi:type="star"
         style="fill:#666666;fill-opacity:1;stroke-width:0.145162;-inkscape-stroke:none"
         id="path13"
         inkscape:flatsided="false"
         sodipodi:sides="3"
         sodipodi:cx="18.576635"
         sodipodi:cy="7.1772952"
         sodipodi:r1="1.9750159"
         sodipodi:r2="0.98750764"
         sodipodi:arg1="0.52359878"
         sodipodi:arg2="1.5707963"
         inkscape:rounded="0"
         inkscape:randomized="0"
         d="m 20.287049,8.1648032 -1.710414,-4e-7 -1.710414,3e-7 0.855208,-1.4812617 0.855206,-1.4812621 0.855207,1.4812621 z"
         inkscape:transform-center-y="-0.32782007"
         transform="matrix(1.3240145,0.38109764,-0.38109764,1.3240145,-1.1384544,-9.3496972)"
         inkscape:transform-center-x="0.37633718" /><text
         xml:space="preserve"
         style="font-style:normal;font-variant:normal;font-weight:normal;font-stretch:normal;font-size:10.1363px;line-height:1;font-family:'Ubuntu Condensed';-inkscape-font-specification:'Ubuntu Condensed, ';font-variant-ligatures:normal;font-variant-position:normal;font-variant-caps:normal;font-variant-numeric:normal;font-variant-alternates:normal;font-variant-east-asian:normal;font-feature-settings:normal;font-variation-settings:normal;text-indent:0;text-align:center;text-decoration:none;text-decoration-line:none;text-decoration-style:solid;text-decoration-color:#000000;letter-spacing:0px;word-spacing:0px;text-transform:none;writing-mode:lr-tb;direction:ltr;text-orientation:mixed;dominant-baseline:auto;baseline-shift:baseline;text-anchor:middle;white-space:normal;vector-effect:none;fill:#666666;fill-opacity:1;stroke:none;stroke-width:0.2;stroke-linecap:butt;stroke-linejoin:miter;stroke-miterlimit:4;stroke-dasharray:none;stroke-dashoffset:0;stroke-opacity:1;-inkscape-stroke:none;stop-color:#000000"
         x="27.286674"
         y="13.420226"
         id="text2"><tspan
           sodipodi:role="line"
           id="tspan2"
           style="font-style:normal;font-variant:normal;font-weight:normal;font-stretch:normal;font-size:10.1363px;line-height:1;font-family:'Ubuntu Condensed';-inkscape-font-specification:'Ubuntu Condensed, ';font-variant-ligatures:normal;font-variant-position:normal;font-variant-caps:normal;font-variant-numeric:normal;font-variant-alternates:normal;font-variant-east-asian:normal;font-feature-settings:normal;font-variation-settings:normal;text-indent:0;text-align:center;text-decoration:none;text-decoration-line:none;text-decoration-style:solid;text-decoration-color:#000000;letter-spacing:0px;word-spacing:0px;text-transform:none;writing-mode:lr-tb;direction:ltr;text-orientation:mixed;dominant-baseline:auto;baseline-shift:baseline;white-space:normal;vector-effect:none;fill:#666666;fill-opacity:1;stroke:none;stroke-width:0.2;stroke-linecap:butt;stroke-linejoin:miter;stroke-miterlimit:4;stroke-dasharray:none;stroke-dashoffset:0;stroke-opacity:1;-inkscape-stroke:none;stop-color:#000000;stop-opacity:1"
           x="27.286674"
           y="13.420226">get</tspan></text></g></g></svg>
